# xmcd
#
# Track frame offsets:
#	150
#	14800
#	36317
#	48462
#	65405
#	84140
#	97747
#	114422
#	134560
#	156692
#	174240
#
# Disc length: 2600 seconds
#
# Revision: 3
# Processed by: cddbd v1.5.2PL0 Copyright (c) Steve Scherf et al.
# Submitted via: audiograbber 1.83.01
#
DISCID=8f0a260b
DTITLE=Pirates Of The Mississippi - A Street Man Named Desire
DYEAR=1992
DGENRE=Oldies
TTITLE0=Don't Quit Your Day Job
TTITLE1=Room At The Bottom
TTITLE2=Ain't Got No Idea
TTITLE3=All That Your Eyes See
TTITLE4=Mystery Ship
TTITLE5=My Kinda Woman
TTITLE6=Some Things Never Change
TTITLE7=Mississippi Homegrown
TTITLE8=A Street Man Named Desire
TTITLE9=The Hard Side Of Love
TTITLE10=Just For You
EXTD=
EXTT0=
EXTT1=
EXTT2=
EXTT3=
EXTT4=
EXTT5=
EXTT6=
EXTT7=
EXTT8=
EXTT9=
EXTT10=
PLAYORDER=
